<?xml version="1.0" encoding="UTF-8" standalone="no"?>
<!-- Generator: Adobe Illustrator 17.1.0, SVG Export Plug-In . SVG Version: 6.00 Build 0)  -->

<svg
   xmlns:dc="http://purl.org/dc/elements/1.1/"
   xmlns:cc="http://creativecommons.org/ns#"
   xmlns:rdf="http://www.w3.org/1999/02/22-rdf-syntax-ns#"
   xmlns:svg="http://www.w3.org/2000/svg"
   xmlns="http://www.w3.org/2000/svg"
   xmlns:sodipodi="http://sodipodi.sourceforge.net/DTD/sodipodi-0.dtd"
   xmlns:inkscape="http://www.inkscape.org/namespaces/inkscape"
   version="1.1"
   id="Capa_1"
   x="0px"
   y="0px"
   viewBox="0 0 288 288"
   style="enable-background:new 0 0 288 288;"
   xml:space="preserve"
   width="512px"
   height="512px"
   sodipodi:docname="lighthouse.svg"
   inkscape:version="0.92.2 (5c3e80d, 2017-08-06)"><metadata
     id="metadata39"><rdf:RDF><cc:Work
         rdf:about=""><dc:format>image/svg+xml</dc:format><dc:type
           rdf:resource="http://purl.org/dc/dcmitype/StillImage" /><dc:title></dc:title></cc:Work></rdf:RDF></metadata><defs
     id="defs37" /><sodipodi:namedview
     pagecolor="#ffffff"
     bordercolor="#666666"
     borderopacity="1"
     objecttolerance="10"
     gridtolerance="10"
     guidetolerance="10"
     inkscape:pageopacity="0"
     inkscape:pageshadow="2"
     inkscape:window-width="1920"
     inkscape:window-height="1121"
     id="namedview35"
     showgrid="false"
     inkscape:zoom="0.4609375"
     inkscape:cx="250.57627"
     inkscape:cy="256"
     inkscape:window-x="-9"
     inkscape:window-y="-9"
     inkscape:window-maximized="1"
     inkscape:current-layer="Capa_1" /><path
     d="M65.609,186.235L76.687,97h70.46l4.41,35.522L65.609,186.235z M178.917,273h-9.989c0.001-0.056,0.008-0.111,0.008-0.167  c0-0.507-0.05-1.003-0.146-1.481l-12.467-100.429l-95.785,59.861c-0.16,0.1-0.328,0.175-0.492,0.261l-5.073,40.865  c-0.045,0.365-0.054,0.729-0.045,1.091H44.916c-4.143,0-7.5,3.357-7.5,7.5s3.357,7.5,7.5,7.5h134c4.143,0,7.5-3.357,7.5-7.5  S183.059,273,178.917,273z M148.917,69h-5.245l-1.56-12H117.25c-0.736,0-1.438-0.399-2.076-0.669  c-0.638-0.27-1.213-0.785-1.695-1.268c-0.724-0.724-1.407-1.717-1.62-2.759c-0.071-0.347-0.275-0.738-0.275-1.106v-0.031v-5.833l0,0  c0-0.368,0.204-0.728,0.275-1.075c0.355-1.736,1.637-3.165,3.232-3.839c0.638-0.27,1.423-0.419,2.159-0.419h22.802l-1.198-9.598  c2.682-1.143,4.562-3.802,4.562-6.902c0-3.941-3.041-7.165-6.903-7.47C133.209,6.539,124.152,0,113.705,0h-3.576  C99.692,0,90.644,6.526,87.332,16h-0.415c-4.143,0-7.5,3.357-7.5,7.5c0,3.457,2.341,6.359,5.522,7.228L80.163,69h-6.246  c-4.143,0-7.5,3.357-7.5,7.5c0,2.176,0.932,4.13,2.413,5.5h85.174c1.48-1.37,2.413-3.324,2.413-5.5  C156.417,72.357,153.059,69,148.917,69z M248.068,26.451c-1.699-1.427-3.861-2.026-6.044-1.638l-91.958,16.302  c-3.581,0.635-6.171,3.747-6.171,7.385s2.621,6.75,6.202,7.385l92.005,16.302c0.436,0.077,0.876,0.115,1.311,0.115  c1.748,0,3.293-0.611,4.653-1.753c1.7-1.425,2.516-3.529,2.516-5.747V32.198C250.583,29.98,249.769,27.876,248.068,26.451z"
     fill="#eb9813"
     id="path2" /><g
     id="g4" /><g
     id="g6" /><g
     id="g8" /><g
     id="g10" /><g
     id="g12" /><g
     id="g14" /><g
     id="g16" /><g
     id="g18" /><g
     id="g20" /><g
     id="g22" /><g
     id="g24" /><g
     id="g26" /><g
     id="g28" /><g
     id="g30" /><g
     id="g32" /></svg>