<?xml version="1.0" encoding="UTF-8" standalone="no"?>
<!-- Generator: Adobe Illustrator 17.1.0, SVG Export Plug-In . SVG Version: 6.00 Build 0)  -->

<svg
   xmlns:dc="http://purl.org/dc/elements/1.1/"
   xmlns:cc="http://creativecommons.org/ns#"
   xmlns:rdf="http://www.w3.org/1999/02/22-rdf-syntax-ns#"
   xmlns:svg="http://www.w3.org/2000/svg"
   xmlns="http://www.w3.org/2000/svg"
   xmlns:sodipodi="http://sodipodi.sourceforge.net/DTD/sodipodi-0.dtd"
   xmlns:inkscape="http://www.inkscape.org/namespaces/inkscape"
   version="1.1"
   id="Capa_1"
   x="0px"
   y="0px"
   viewBox="0 0 864 288"
   xml:space="preserve"
   width="1536"
   height="512"
   sodipodi:docname="wos-logo.svg"
   inkscape:version="0.92.2 (5c3e80d, 2017-08-06)"
   inkscape:export-filename="C:\Users\aabor\Documents\R\Rprojects\wos\www\wos-logo.png"
   inkscape:export-xdpi="96"
   inkscape:export-ydpi="96"><metadata
     id="metadata39"><rdf:RDF><cc:Work
         rdf:about=""><dc:format>image/svg+xml</dc:format><dc:type
           rdf:resource="http://purl.org/dc/dcmitype/StillImage" /><dc:title></dc:title></cc:Work></rdf:RDF></metadata><defs
     id="defs37" /><sodipodi:namedview
     pagecolor="#ffffff"
     bordercolor="#666666"
     borderopacity="1"
     objecttolerance="10"
     gridtolerance="10"
     guidetolerance="10"
     inkscape:pageopacity="0"
     inkscape:pageshadow="2"
     inkscape:window-width="1920"
     inkscape:window-height="1121"
     id="namedview35"
     showgrid="false"
     inkscape:zoom="0.65186406"
     inkscape:cx="474.49206"
     inkscape:cy="193.82599"
     inkscape:window-x="-9"
     inkscape:window-y="-9"
     inkscape:window-maximized="1"
     inkscape:current-layer="Capa_1" /><path
     d="M 59.992786,179.45883 70.035281,99.071249 H 133.9091 l 3.99779,32.000081 z M 162.70944,257.6213 h -9.05529 c 9e-4,-0.0504 0.008,-0.1 0.008,-0.15045 0,-0.45672 -0.0454,-0.90354 -0.13236,-1.33415 l -11.30165,-90.47173 -86.831596,53.92594 c -0.145044,0.0901 -0.29734,0.15765 -0.44601,0.23512 l -4.598806,36.81334 c -0.0408,0.32881 -0.04896,0.65672 -0.0408,0.98283 H 41.23479 c -3.755737,0 -6.798946,3.02417 -6.798946,6.75639 0,3.73224 3.043209,6.7564 6.798946,6.7564 h 121.47374 c 3.75574,0 6.79894,-3.02416 6.79894,-6.7564 0,-3.73222 -3.0432,-6.75729 -6.79803,-6.75729 z M 135.51365,73.847377 h -4.75472 l -1.41419,-10.81023 h -22.53805 c -0.66719,0 -1.30358,-0.359441 -1.88194,-0.602672 -0.57837,-0.243229 -1.09962,-0.707169 -1.53656,-1.14228 -0.65633,-0.652217 -1.27549,-1.546764 -1.46858,-2.485453 -0.0643,-0.312595 -0.24929,-0.664828 -0.24929,-0.996342 v -0.02793 -5.254673 0 c 0,-0.331513 0.18493,-0.655821 0.24929,-0.968416 0.32182,-1.56388 1.48399,-2.851198 2.92989,-3.458373 0.57837,-0.24323 1.29,-0.377457 1.95719,-0.377457 h 20.67061 l -1.08602,-8.646383 c 2.4313,-1.029675 4.13557,-3.425042 4.13557,-6.217685 0,-3.550259 -2.75674,-6.454608 -6.25775,-6.729368 -2.99516,-8.550895 -11.20557,-14.44157 -20.67604,-14.44157 h -3.24173 c -9.461418,0 -17.663665,5.878965 -20.66608,14.413641 h -0.376209 c -3.755737,0 -6.798944,3.024163 -6.798944,6.756395 0,3.114247 2.122177,5.728521 5.005836,6.511362 l -4.329568,34.477434 h -5.662161 c -3.755737,0 -6.798945,3.024162 -6.798945,6.756394 0,1.960255 0.844882,3.720521 2.187447,4.954689 h 77.212444 c 1.34166,-1.234168 2.18745,-2.994434 2.18745,-4.954689 0,-3.732232 -3.04412,-6.756394 -6.79895,-6.756394 z m 89.88296,-38.330376 c -1.54018,-1.285516 -3.5001,-1.825128 -5.47904,-1.475596 l -83.36232,14.685698 c -3.24627,0.572041 -5.59417,3.375495 -5.59417,6.652797 0,3.277301 2.37601,6.080754 5.62227,6.652796 l 83.40493,14.685698 c 0.39524,0.06937 0.79412,0.103598 1.18845,0.103598 1.58461,0 2.9852,-0.55042 4.21807,-1.579194 1.54109,-1.283715 2.28082,-3.179109 2.28082,-5.1772 V 40.694201 c 9e-4,-1.998091 -0.73701,-3.893485 -2.27901,-5.1772 z"
     id="path2"
     style="fill:#eb9813;stroke:#4f0000;stroke-width:7.35949659;stroke-miterlimit:4;stroke-dasharray:none;stroke-opacity:1"
     inkscape:connector-curvature="0" /><g
     id="g4" /><g
     id="g6" /><g
     id="g8" /><g
     id="g10" /><g
     id="g12" /><g
     id="g14" /><g
     id="g16" /><g
     id="g18" /><g
     id="g20" /><g
     id="g22" /><g
     id="g24" /><g
     id="g26" /><g
     id="g28" /><g
     id="g30" /><g
     id="g32" /><text
     xml:space="preserve"
     style="font-style:normal;font-variant:normal;font-weight:bold;font-stretch:normal;font-size:78.69050598px;line-height:1.25;font-family:'Berlin Sans FB Demi';-inkscape-font-specification:'Berlin Sans FB Demi, Bold';font-variant-ligatures:normal;font-variant-caps:normal;font-variant-numeric:normal;font-feature-settings:normal;text-align:start;letter-spacing:0px;word-spacing:0px;writing-mode:lr-tb;text-anchor:start;fill:#ff7f2a;fill-opacity:1;stroke:none;stroke-width:1.96726263"
     x="264.42377"
     y="72.603851"
     id="text848"
     transform="scale(1.0095794,0.99051152)"><tspan
       sodipodi:role="line"
       id="tspan846"
       x="264.42377"
       y="72.603851"
       style="font-style:normal;font-variant:normal;font-weight:bold;font-stretch:normal;font-size:78.69050598px;font-family:'Berlin Sans FB Demi';-inkscape-font-specification:'Berlin Sans FB Demi, Bold';font-variant-ligatures:normal;font-variant-caps:normal;font-variant-numeric:normal;font-feature-settings:normal;text-align:start;writing-mode:lr-tb;text-anchor:start;fill:#ff7f2a;stroke-width:1.96726263">Web of science </tspan><tspan
       sodipodi:role="line"
       x="264.42377"
       y="170.967"
       style="font-style:normal;font-variant:normal;font-weight:bold;font-stretch:normal;font-size:78.69050598px;font-family:'Berlin Sans FB Demi';-inkscape-font-specification:'Berlin Sans FB Demi, Bold';font-variant-ligatures:normal;font-variant-caps:normal;font-variant-numeric:normal;font-feature-settings:normal;text-align:start;writing-mode:lr-tb;text-anchor:start;fill:#ff7f2a;stroke-width:1.96726263"
       id="tspan850">bibliography</tspan><tspan
       sodipodi:role="line"
       x="264.42377"
       y="269.33011"
       style="font-style:normal;font-variant:normal;font-weight:bold;font-stretch:normal;font-size:78.69050598px;font-family:'Berlin Sans FB Demi';-inkscape-font-specification:'Berlin Sans FB Demi, Bold';font-variant-ligatures:normal;font-variant-caps:normal;font-variant-numeric:normal;font-feature-settings:normal;text-align:start;writing-mode:lr-tb;text-anchor:start;fill:#ff7f2a;stroke-width:1.96726263"
       id="tspan852">manager</tspan></text>
</svg>